# xmcd
#
# Track frame offsets: 
#        183
#        12708
#        26670
#        46308
#        66495
#        87333
#        116358
#        133933
#        154720
#        171395
#        181833
#        194445
#        204983
#        216095
#        230545
#        246358
#        261720
#        278745
#        291745
#        307083
#        318483
#        330145
#
# Disc length: 4559 seconds
#
# Revision: 1
# Processed by: cddbd v1.5.2PL0 Copyright (c) Steve Scherf et al.
# Submitted via: ExactAudioCopyFreeDBPlugin 1.0
#
DISCID=5911cd16
DTITLE=Les choeurs de l'Armée Rouge - Les choeurs de l'armée rouge
DYEAR=1993
DGENRE=Other
TTITLE0=Plaine ma plaine
TTITLE1=Le chemin
TTITLE2=Loin de la maison
TTITLE3=Mémoire du coeur
TTITLE4=Korobeiniki
TTITLE5=Derrière l'île
TTITLE6=Nastasia
TTITLE7=Kalinka
TTITLE8=Hymne national de l'URSS
TTITLE9=Chanson de l'armée soviétique
TTITLE10=Soldats, garçons braves
TTITLE11=Le chant des partisans
TTITLE12=Konarmeiskaya
TTITLE13=La chanson des défenseurs de Moscou
TTITLE14=La marche Russe
TTITLE15=La marche souvenir
TTITLE16=Si demain arrive la guerre
TTITLE17=La chanson du défilé
TTITLE18=En route
TTITLE19=Il est temps de se mettre en route
TTITLE20=Les garde-marine
TTITLE21=La chanson patriotique
EXTD=
EXTT0=
EXTT1=
EXTT2=
EXTT3=
EXTT4=
EXTT5=
EXTT6=
EXTT7=
EXTT8=
EXTT9=
EXTT10=
EXTT11=
EXTT12=
EXTT13=
EXTT14=
EXTT15=
EXTT16=
EXTT17=
EXTT18=
EXTT19=
EXTT20=
EXTT21=
PLAYORDER=
